<mxfile host="65bd71144e">
    <diagram id="qeY58B_zNzT0oNHfWbSL" name="Page-1">
        <mxGraphModel dx="509" dy="652" grid="1" gridSize="10" guides="1" tooltips="1" connect="1" arrows="1" fold="1" page="1" pageScale="1" pageWidth="850" pageHeight="1100" math="0" shadow="0">
            <root>
                <mxCell id="0"/>
                <mxCell id="1" parent="0"/>
                <mxCell id="2" value="Technologies:&amp;nbsp;&lt;br&gt;Devise - JWT&lt;br&gt;Action Mailer&lt;br&gt;Action Cable - Web sockets&lt;br&gt;Material UI&lt;br&gt;Active Storage/Image Processor" style="rounded=1;whiteSpace=wrap;html=1;" parent="1" vertex="1">
                    <mxGeometry x="20" width="220" height="280" as="geometry"/>
                </mxCell>
                <mxCell id="3" value="Data Tables:&amp;nbsp;&lt;br&gt;Users&lt;br&gt;Weddings&lt;br&gt;Threads&lt;br&gt;Messages" style="rounded=1;whiteSpace=wrap;html=1;" parent="1" vertex="1">
                    <mxGeometry x="330" width="220" height="280" as="geometry"/>
                </mxCell>
                <mxCell id="14" style="edgeStyle=none;html=1;exitX=0.5;exitY=0;exitDx=0;exitDy=0;fontSize=10;" parent="1" source="4" target="13" edge="1">
                    <mxGeometry relative="1" as="geometry"/>
                </mxCell>
                <mxCell id="27" style="edgeStyle=none;html=1;entryX=0.218;entryY=0.991;entryDx=0;entryDy=0;entryPerimeter=0;exitX=1;exitY=0.886;exitDx=0;exitDy=0;exitPerimeter=0;" edge="1" parent="1" source="4" target="25">
                    <mxGeometry relative="1" as="geometry"/>
                </mxCell>
                <mxCell id="4" value="&lt;font style=&quot;font-size: 10px&quot;&gt;Users:&amp;nbsp;&lt;br&gt;first_name&lt;br&gt;last_name&lt;br&gt;email_address&lt;br&gt;password&lt;br&gt;&lt;/font&gt;" style="rounded=1;whiteSpace=wrap;html=1;" parent="1" vertex="1">
                    <mxGeometry x="270" y="465" width="120" height="175" as="geometry"/>
                </mxCell>
                <mxCell id="15" style="edgeStyle=none;html=1;fontSize=10;" parent="1" source="5" target="13" edge="1">
                    <mxGeometry relative="1" as="geometry"/>
                </mxCell>
                <mxCell id="5" value="&lt;font style=&quot;font-size: 10px&quot;&gt;Weddings:&lt;br&gt;name&lt;br&gt;location&lt;br&gt;date&lt;br&gt;info_url&lt;br&gt;&lt;br&gt;&lt;br&gt;&lt;/font&gt;" style="rounded=1;whiteSpace=wrap;html=1;" parent="1" vertex="1">
                    <mxGeometry x="420" y="320" width="120" height="120" as="geometry"/>
                </mxCell>
                <mxCell id="11" style="edgeStyle=none;html=1;fontSize=10;" parent="1" source="6" target="7" edge="1">
                    <mxGeometry relative="1" as="geometry"/>
                </mxCell>
                <mxCell id="12" style="edgeStyle=none;html=1;entryX=0.94;entryY=0.963;entryDx=0;entryDy=0;entryPerimeter=0;fontSize=10;" parent="1" source="6" target="4" edge="1">
                    <mxGeometry relative="1" as="geometry"/>
                </mxCell>
                <mxCell id="6" value="Messages:&lt;br&gt;body&lt;br&gt;thread_id&lt;br&gt;user_id" style="rounded=1;whiteSpace=wrap;html=1;" parent="1" vertex="1">
                    <mxGeometry x="540" y="610" width="120" height="130" as="geometry"/>
                </mxCell>
                <mxCell id="10" style="edgeStyle=none;html=1;fontSize=10;" parent="1" source="7" target="5" edge="1">
                    <mxGeometry relative="1" as="geometry"/>
                </mxCell>
                <mxCell id="7" value="Threads:&lt;br&gt;title&lt;br&gt;wedding_id" style="rounded=1;whiteSpace=wrap;html=1;" parent="1" vertex="1">
                    <mxGeometry x="540" y="460" width="120" height="130" as="geometry"/>
                </mxCell>
                <mxCell id="13" value="&lt;font style=&quot;font-size: 10px&quot;&gt;Photos:&lt;br&gt;img_url&lt;br&gt;user_id&lt;br&gt;wedding_id&lt;br&gt;&lt;br&gt;&lt;br&gt;&lt;/font&gt;" style="rounded=1;whiteSpace=wrap;html=1;" parent="1" vertex="1">
                    <mxGeometry x="270" y="320" width="120" height="120" as="geometry"/>
                </mxCell>
                <mxCell id="16" value="has_many :threads, :users, photos" style="text;html=1;strokeColor=none;fillColor=none;align=center;verticalAlign=middle;whiteSpace=wrap;rounded=0;fontSize=10;" parent="1" vertex="1">
                    <mxGeometry x="425" y="410" width="110" height="30" as="geometry"/>
                </mxCell>
                <mxCell id="17" value="&lt;font style=&quot;font-size: 7px&quot;&gt;belongs_to wedding&lt;br&gt;has_many messages&lt;br&gt;has_many users, through messages&lt;/font&gt;" style="text;html=1;strokeColor=none;fillColor=none;align=center;verticalAlign=middle;whiteSpace=wrap;rounded=0;fontSize=10;" parent="1" vertex="1">
                    <mxGeometry x="520" y="465" width="140" height="30" as="geometry"/>
                </mxCell>
                <mxCell id="18" value="belongs_to threads, users" style="text;html=1;strokeColor=none;fillColor=none;align=center;verticalAlign=middle;whiteSpace=wrap;rounded=0;fontSize=10;" parent="1" vertex="1">
                    <mxGeometry x="530" y="610" width="140" height="30" as="geometry"/>
                </mxCell>
                <mxCell id="20" value="&lt;font style=&quot;font-size: 7px&quot;&gt;belongs_to wedding&lt;br&gt;has many messages&lt;br&gt;has many photos&lt;br&gt;has many threads through messages&lt;/font&gt;" style="text;html=1;strokeColor=none;fillColor=none;align=center;verticalAlign=middle;whiteSpace=wrap;rounded=0;fontSize=10;" parent="1" vertex="1">
                    <mxGeometry x="250" y="650" width="160" height="30" as="geometry"/>
                </mxCell>
                <mxCell id="21" value="Belongs to user, wedding" style="text;html=1;strokeColor=none;fillColor=none;align=center;verticalAlign=middle;whiteSpace=wrap;rounded=0;fontSize=10;" parent="1" vertex="1">
                    <mxGeometry x="250" y="400" width="160" height="30" as="geometry"/>
                </mxCell>
                <mxCell id="23" value="&lt;h1&gt;&lt;span&gt;User Stories&lt;/span&gt;&lt;/h1&gt;&lt;div&gt;&lt;span&gt;&lt;span&gt;&#9;&lt;/span&gt;Attendee&lt;br&gt;&lt;/span&gt;&lt;/div&gt;&lt;div&gt;&lt;span&gt;- Can create a new thread&lt;/span&gt;&lt;/div&gt;&lt;div&gt;&lt;span&gt;- Can create messages inside of any thread&lt;/span&gt;&lt;/div&gt;&lt;div&gt;&lt;span&gt;- Can remove messages inside of own thread&lt;/span&gt;&lt;/div&gt;&lt;div&gt;&lt;span&gt;- Can see names of other attendees&lt;/span&gt;&lt;/div&gt;&lt;div&gt;&lt;span&gt;- Can upload photos to a shared album&lt;/span&gt;&lt;/div&gt;&lt;div&gt;- Can access all photos from the wedding from all users&lt;/div&gt;&lt;div&gt;&lt;span&gt;&#9;&lt;/span&gt;&lt;/div&gt;&lt;div&gt;&lt;br&gt;&lt;/div&gt;&lt;div&gt;Host&amp;nbsp;&lt;br&gt;&lt;/div&gt;&lt;div&gt;- Can create a new wedding&lt;br&gt;&lt;/div&gt;&lt;div&gt;- Add additional hosts&lt;/div&gt;&lt;div&gt;- All attendee permissions&lt;/div&gt;&lt;div&gt;- Can enter email addresses to invite new users to wedding thread&lt;/div&gt;&lt;div&gt;- Can remove photos&lt;/div&gt;&lt;div&gt;- Can remove attendees&amp;nbsp;&lt;/div&gt;&lt;div&gt;- Can remove or edit threads/messages&lt;/div&gt;&lt;div&gt;&lt;br&gt;&lt;/div&gt;&lt;div&gt;&lt;br&gt;&lt;/div&gt;&lt;div&gt;&lt;br&gt;&lt;/div&gt;&lt;div&gt;&lt;br&gt;&lt;/div&gt;" style="text;html=1;strokeColor=none;fillColor=none;spacing=5;spacingTop=-20;whiteSpace=wrap;overflow=hidden;rounded=0;fontSize=7;" parent="1" vertex="1">
                    <mxGeometry x="30" y="495" width="190" height="230" as="geometry"/>
                </mxCell>
                <mxCell id="24" value="&lt;h1&gt;&lt;span&gt;Goals/Purpose&lt;/span&gt;&lt;/h1&gt;&lt;h1&gt;&lt;span style=&quot;font-size: 7px ; font-weight: 400&quot;&gt;- Improve overall guest experience&lt;/span&gt;&lt;/h1&gt;&lt;h1&gt;&lt;span style=&quot;font-size: 7px ; font-weight: 400&quot;&gt;- Easier communication for wedding guests&lt;/span&gt;&lt;/h1&gt;&lt;div&gt;- Encourages meet ups at weddings before/after main events&lt;/div&gt;&lt;div&gt;&lt;br&gt;&lt;/div&gt;&lt;div&gt;- Easily view shared photos from the whole event&lt;/div&gt;" style="text;html=1;strokeColor=none;fillColor=none;spacing=5;spacingTop=-20;whiteSpace=wrap;overflow=hidden;rounded=0;fontSize=7;" parent="1" vertex="1">
                    <mxGeometry x="30" y="320" width="190" height="160" as="geometry"/>
                </mxCell>
                <mxCell id="26" style="edgeStyle=none;html=1;" edge="1" parent="1" source="25" target="16">
                    <mxGeometry relative="1" as="geometry"/>
                </mxCell>
                <mxCell id="25" value="Join Table&lt;br&gt;wedding_id&lt;br&gt;user_id&lt;br&gt;permissions" style="rounded=1;whiteSpace=wrap;html=1;" vertex="1" parent="1">
                    <mxGeometry x="400" y="480" width="120" height="90" as="geometry"/>
                </mxCell>
            </root>
        </mxGraphModel>
    </diagram>
</mxfile>